<?xml version="1.0" encoding="UTF-8" standalone="no"?>
<svg
   xmlns:dc="http://purl.org/dc/elements/1.1/"
   xmlns:cc="http://creativecommons.org/ns#"
   xmlns:rdf="http://www.w3.org/1999/02/22-rdf-syntax-ns#"
   xmlns:svg="http://www.w3.org/2000/svg"
   xmlns="http://www.w3.org/2000/svg"
   xmlns:sodipodi="http://sodipodi.sourceforge.net/DTD/sodipodi-0.dtd"
   xmlns:inkscape="http://www.inkscape.org/namespaces/inkscape"
   sodipodi:docname="Attack On Titan FreeSVGs.svg"
   inkscape:version="1.0 (4035a4fb49, 2020-05-01)"
   id="svg872"
   version="1.1"
   viewBox="0 0 210 297"
   height="297mm"
   width="210mm">
  <defs
     id="defs866" />
  <sodipodi:namedview
     inkscape:window-maximized="1"
     inkscape:window-y="-8"
     inkscape:window-x="-8"
     inkscape:window-height="697"
     inkscape:window-width="1366"
     showgrid="false"
     inkscape:document-rotation="0"
     inkscape:current-layer="layer1"
     inkscape:document-units="mm"
     inkscape:cy="343.01274"
     inkscape:cx="423.98287"
     inkscape:zoom="0.7"
     inkscape:pageshadow="2"
     inkscape:pageopacity="0.0"
     borderopacity="1.0"
     bordercolor="#666666"
     pagecolor="#ffffff"
     id="base" />
  <metadata
     id="metadata869">
    <rdf:RDF>
      <cc:Work
         rdf:about="">
        <dc:format>image/svg+xml</dc:format>
        <dc:type
           rdf:resource="http://purl.org/dc/dcmitype/StillImage" />
        <dc:title></dc:title>
      </cc:Work>
    </rdf:RDF>
  </metadata>
  <g
     id="layer1"
     inkscape:groupmode="layer"
     inkscape:label="Layer 1">
    <g
       transform="matrix(1.1627036,0,0,1.1627036,-26.848348,-41.534218)"
       id="g1453">
      <path
         id="path1264"
         style="color:#000000;font-style:normal;font-variant:normal;font-weight:normal;font-stretch:normal;font-size:medium;line-height:normal;font-family:sans-serif;font-variant-ligatures:normal;font-variant-position:normal;font-variant-caps:normal;font-variant-numeric:normal;font-variant-alternates:normal;font-variant-east-asian:normal;font-feature-settings:normal;font-variation-settings:normal;text-indent:0;text-align:start;text-decoration:none;text-decoration-line:none;text-decoration-style:solid;text-decoration-color:#000000;letter-spacing:normal;word-spacing:normal;text-transform:none;writing-mode:lr-tb;direction:ltr;text-orientation:mixed;dominant-baseline:auto;baseline-shift:baseline;text-anchor:start;white-space:normal;shape-padding:0;shape-margin:0;inline-size:0;clip-rule:nonzero;display:inline;overflow:visible;visibility:visible;isolation:auto;mix-blend-mode:normal;color-interpolation:sRGB;color-interpolation-filters:linearRGB;solid-color:#000000;solid-opacity:1;vector-effect:none;fill:#999999;fill-opacity:1;fill-rule:nonzero;stroke:none;stroke-width:0.268898;stroke-linecap:butt;stroke-linejoin:miter;stroke-miterlimit:4;stroke-dasharray:none;stroke-dashoffset:0;stroke-opacity:1;color-rendering:auto;image-rendering:auto;shape-rendering:auto;text-rendering:auto;enable-background:accumulate;stop-color:#000000"
         d="m 26.650261,44.543372 v 1.454328 71.97464 l 20.026261,10.67526 c 0.708725,-0.70841 1.394857,-1.43356 2.061294,-2.17913 l -4.359371,-2.32392 c -0.281409,-0.10541 -0.51958,-0.23617 -0.748426,-0.39908 L 29.485826,116.20536 V 84.867693 c -0.173259,-0.271598 -0.338001,-0.54242 -0.488575,-0.810122 -0.268255,-0.515622 -0.814733,-1.135618 0.488575,-1.061912 V 80.61782 h 4.948828 c -1.007397,-0.988193 -1.901013,-2.044122 -2.682155,-3.167395 h -2.266673 v -4.227639 c -0.408992,-1.033277 -0.74433,-2.110572 -0.999382,-3.235762 0.332083,0.148973 0.665993,0.297696 0.999382,0.446331 v -6.28671 c -0.667209,-1.251619 -1.030819,-2.31138 -1.903161,-3.231314 0.641229,0.07843 1.275866,0.178442 1.903161,0.297925 v -9.717013 l -0.95825,-1.975139 c -0.08567,-0.2524 -0.04828,-0.365211 0.07365,-0.381022 0.04064,-0.0053 0.09068,2.85e-4 0.148684,0.01501 0.243347,0.05598 0.489012,0.125119 0.735919,0.201209 V 47.45203 h 6.109399 c -0.608522,-1.009985 -1.091264,-1.977476 -1.458221,-2.908658 z m 15.062981,0 c 0.844462,0.934399 1.6516,1.915198 2.447872,2.908656 h 16.283027 v 17.302418 l 0.74231,0.752314 -0.74231,0.765378 v 2.319755 l 2.878363,-3.007594 -0.778162,8.337721 c -0.720945,0.790212 -1.419115,1.584196 -2.100201,2.37895 v 1.149455 h -0.969923 c -0.885989,1.059877 -1.745103,2.118044 -2.58016,3.167395 h 3.049559 c 1.818331,-2.095851 2.690048,-3.096101 3.588435,-4.125367 V 47.452028 h 16.722965 c 0.755312,-0.99028 1.532681,-1.969917 2.372281,-2.908656 z m 48.553378,0 c -0.39291,0.975055 -0.89865,1.946026 -1.494349,2.908656 h 5.718369 v 2.054623 c 0.0418,-0.01333 0.0832,-0.02817 0.12507,-0.04113 0.39624,-0.129856 0.78058,-0.271117 0.98493,-0.260684 0.20432,0.01042 0.22869,0.172487 -0.0956,0.649764 -0.34145,0.778379 -0.67861,1.527778 -1.01439,2.274455 v 9.30292 l 1.90984,-0.435493 c 0,0 -1.00334,2.067636 -1.90984,3.837447 v 5.889569 c 0.45851,-0.205782 0.91739,-0.411547 1.38041,-0.619749 -0.39217,1.481938 -0.85449,2.824832 -1.38041,4.049218 v 3.297458 h -1.74474 c -0.76338,1.185705 -1.60754,2.232712 -2.52597,3.167395 h 4.27071 v 2.268062 c 0.14688,-0.01101 0.284,-0.01648 0.40243,-0.0114 1.11293,0.04755 1.00614,0.755889 0.40464,1.229494 l -0.80707,1.172801 v 30.928572 l -13.97077,7.44757 c -0.319926,0.28711 -0.608826,0.56678 -0.834856,0.81984 -1.216519,1.36201 -2.814196,2.19372 -4.838218,2.20442 l -1.792273,0.9552 c 1.054402,-0.22808 2.108828,-0.4052 3.163226,-0.48997 0.441091,0.45502 0.895079,0.90802 1.357337,1.35817 L 97.32593,117.97234 V 44.543372 Z M 41.856923,77.450425 c 0.143291,1.055793 0.362215,2.111658 0.634758,3.167395 h 0.864315 c -0.225229,-1.044864 -0.366201,-2.037388 -0.366847,-2.848626 l 3.912761,2.848626 h 2.001543 c -0.857491,-0.781716 -1.78536,-1.817941 -2.641025,-3.167395 h -1.104433 c 0.11119,0.201923 0.227147,0.405655 0.350173,0.612247 l -0.926846,-0.612247 z m 10.172237,0 c -0.07026,1.092348 -0.08861,2.138068 -0.07281,3.167395 h 1.752529 l 0.0856,-3.167395 z m 12.813538,0 c -0.08491,1.042371 -0.193248,2.092509 -0.375741,3.167395 h 3.270223 c 1.090375,-1.084508 2.193838,-2.140328 3.312744,-3.167395 h -2.160232 c -1.023023,1.001362 -2.03889,2.011491 -3.065955,3.030383 l 0.144238,-3.030383 z m 13.130638,0 c -0.412468,0.641903 -0.88787,1.33445 -1.441821,2.090475 -0.495824,0.355977 -0.983495,0.715154 -1.464332,1.07692 h 2.251664 c 1.338187,-0.984618 2.703541,-1.94276 4.10369,-2.866969 -0.184766,0.961394 -0.384071,1.918112 -0.608078,2.866969 h 1.08498 c 0.248839,-1.056626 0.437524,-2.112549 0.542767,-3.167395 h -2.727733 c -0.318344,0.216831 -0.638648,0.435493 -0.638648,0.435493 0.08029,-0.145188 0.15816,-0.290347 0.235949,-0.435493 z m -14.441284,5.404887 -3.087911,3.497279 v 2.020163 c 1.034353,-1.158788 2.064384,-2.304283 3.087911,-3.429191 z m 0,7.729087 c -1.052591,1.076394 -2.079362,2.190392 -3.087911,3.331087 v 2.245829 c 1.01276,-1.169228 2.038896,-2.325346 3.087911,-3.459205 z m 0,7.308603 c -1.069681,0.843637 -2.095806,1.735318 -3.087911,2.664088 v 2.35033 c 1.022574,-0.90194 2.051216,-1.78927 3.087911,-2.65715 z m 0,7.234678 c -1.024552,0.72441 -2.054794,1.4409 -3.087911,2.15439 v 2.45038 c 1.032938,-0.6567 2.059161,-1.31101 3.087911,-1.96625 z m 0,6.50626 c -0.3604,0.49645 -0.718541,0.92308 -1.051908,1.25562 -0.695456,0.32561 -1.369926,0.65106 -2.036003,0.97631 v 1.44488 c 1.026828,-0.53462 2.056653,-1.07247 3.087911,-1.61163 z m 0,3.17045 c -0.959961,1.48126 -1.946678,2.94515 -3.087911,4.30879 v 1.67027 c 0.472872,-0.20512 0.945805,-0.41001 1.418755,-0.61475 -0.460438,0.90318 -0.923475,1.80331 -1.418755,2.66409 v 1.67055 c 1.039085,-1.66149 2.109581,-3.3234 2.865023,-4.98135 l 0.222888,-0.0787 v -1.47016 l -1.297306,0.5008 c 0.432474,-0.64033 0.869884,-1.27572 1.297306,-1.92095 z m 0,8.95358 -3.087911,1.06164 v 1.023 c 1.029131,-0.40668 2.057423,-0.8143 3.087911,-1.21921 z m -3.087911,2.33643 v 6.61465 l -7.9567,-4.24154 c -1.079109,0.51138 -2.152337,1.03273 -3.221032,1.56077 l 12.72127,6.7814 12.879405,-6.86533 c -1.001088,-0.52318 -2.037544,-1.06725 -3.100695,-1.62524 l -8.234337,4.38966 v -6.36619 z" />
      <path
         id="path1507"
         style="fill:#0000af;fill-opacity:1;stroke:none;stroke-width:0.142292px;stroke-linecap:butt;stroke-linejoin:miter;stroke-opacity:1"
         d="m 33.363294,38.571271 c -0.91915,5.538759 2.942771,12.21809 14.372918,21.984995 -0.336576,-3.15277 -0.191704,-6.053399 0.03947,-8.638427 -4.319744,-5.031368 -7.86991,-11.093593 -14.412377,-13.346568 z m -4.762071,10.568826 c -0.121929,0.01581 -0.159317,0.128614 -0.07365,0.381013 l 2.723565,5.613873 c 1.000492,1.723078 1.22356,3.44615 3.001476,5.169212 3.199936,2.927352 7.627991,5.854763 11.450089,8.782115 -0.457311,-3.00146 -0.940894,-6.002986 -1.111656,-9.004446 -5.367088,-4.54001 -10.972534,-9.806804 -15.841143,-10.926774 -0.058,-0.01468 -0.108044,-0.02027 -0.148685,-0.015 z m 20.047379,3.660413 c -0.268329,2.867205 -0.249248,5.782306 0.111168,8.754307 l 8.614522,7.882213 3.812159,-3.93027 z m -3.065399,8.107605 c 0.342173,3.021703 0.630487,8.353926 1.650813,9.314869 1.837812,1.730833 5.777574,4.912972 5.777574,4.912972 0.138897,-2.049268 1.734661,-2.965471 2.711889,-4.362697 -3.078377,-3.469372 -6.540623,-6.708545 -10.140276,-9.865144 z m -18.000537,0.0075 c 1.118211,1.179219 1.398119,2.586179 2.556815,4.335479 1.158696,1.749301 2.190569,4.42185 4.891299,5.891786 l 10.477389,6.920077 C 43.415737,74.549245 43.095226,71.73738 42.506687,68.724996 L 38.411894,65.4734 C 35.493619,62.676061 31.650811,61.413188 27.582666,60.91559 Z m 15.996218,8.600082 c -0.275396,0.110147 0.528703,3.311356 1.139728,4.873514 2.539863,6.493425 7.31027,8.332156 7.31027,8.332156 -0.105107,-2.037431 -0.128953,-4.049144 0.07865,-6.288374 -2.842923,-2.538266 -5.685723,-4.797173 -8.528646,-6.917296 z m -15.092438,0.471586 c 1.77547,7.832682 7.317563,13.416433 16.114329,17.057298 -1.21815,-3.314561 -2.394637,-6.628945 -2.790542,-9.943506 -4.133988,-3.134528 -8.801891,-5.085256 -13.323787,-7.113792 z m 14.502705,7.781898 c 0.0027,3.23984 2.244574,9.371591 3.144326,10.179455 0.899747,0.80788 5.463247,3.222978 5.463247,3.222978 l 0.353505,-6.878116 z m -12.806592,5.214515 c -0.226171,0.0011 -0.450793,0.0062 -0.674221,0.0128 -1.334524,-0.08284 -0.781001,0.542262 -0.511086,1.061075 0.980621,1.743423 2.515087,3.614099 3.655412,5.030819 1.140331,1.416715 1.967647,2.294606 3.576485,3.065674 l 8.56811,4.048386 c -1.026425,-2.633306 -1.644881,-5.266692 -2.043782,-7.899997 0.08978,-0.276686 -5.586064,-2.786127 -7.585683,-4.048107 -1.749671,-1.10426 -3.402034,-1.279136 -4.985235,-1.270628 z m 13.671462,5.790346 c 0.354656,2.870609 1.275135,5.498563 2.358104,8.057035 l 5.069998,2.554857 0.157301,-6.249179 z m -11.616558,4.571427 c -0.580015,-0.0081 -1.168049,0.01931 -1.764483,0.08614 2.789499,4.115235 4.001222,8.592821 15.841138,12.283841 -1.590591,-2.59692 -2.38189,-5.5383 -2.945895,-8.281866 -3.403497,-2.232453 -7.070633,-4.031527 -11.13076,-4.088119 z m 12.245201,4.664799 c 0.499517,3.213442 1.702641,5.764662 3.340811,8.253502 l 3.144327,1.33651 0.196484,-5.62028 z m -11.84195,4.926032 c 0,0 1.905929,2.35214 2.890315,3.50173 1.413257,1.65045 2.590631,3.05603 5.169216,3.8908 1.255376,0.4064 7.03124,2.6124 7.03124,2.6124 -1.266224,-2.07567 -2.189139,-4.2793 -2.64019,-6.28086 0,0 -2.882737,-1.21745 -4.613386,-2.05657 -2.791833,-1.35367 -4.11082,-1.62964 -7.837195,-1.6675 z m 13.610595,4.15289 c 0.317026,1.43061 1.644984,4.72588 3.065679,6.28865 0.204976,0.22547 0.825407,0.39297 0.825407,0.39297 l 0.70757,-4.59837 z m -9.108376,4.26793 1.528529,2.41786 c 0.988096,1.76444 2.3922,3.24451 4.34353,4.11981 l 5.641672,2.0649 1.15918,-4.35047 z m 8.18765,9.30875 c -0.143786,-0.001 -0.287609,-0.001 -0.431605,2.9e-4 -1.481063,0.0162 -2.970419,0.18159 -4.413562,0.40102 l 2.366166,1.99877 c 0.714658,0.708 1.198246,1.06604 2.240272,1.2773 0.62277,0.12626 2.279731,0.37351 2.279731,0.37351 0.520104,-1.22494 0.945196,-2.54718 0.94213,-3.77214 -0.97649,-0.1866 -1.97666,-0.26937 -2.983132,-0.27875 z m 30.887171,6.47681 c -1.648959,0.13257 -3.297928,0.49006 -4.946888,0.91712 5.417106,2.84254 9.99454,5.25842 14.111964,7.12129 -3.093898,-2.33273 -6.368194,-5.15319 -9.165076,-8.03841 z" />
      <path
         id="path1509"
         style="fill:#e6e6e6;stroke:none;stroke-width:0.142292px;stroke-linecap:butt;stroke-linejoin:miter;stroke-opacity:1"
         d="m 90.94586,38.751354 c -7.423533,2.71639 -10.35274,8.661745 -14.451578,13.56224 0.194457,3.138885 0.479307,5.592276 0.222331,8.003944 6.933705,-6.139017 15.511327,-13.9821 14.229247,-21.566184 z m 4.54223,10.577984 c -0.20434,-0.01043 -0.58868,0.130841 -0.98492,0.260697 -5.454523,1.687088 -10.004239,6.579113 -14.808141,10.585767 -0.03044,2.799189 -0.39711,5.851273 -1.033007,8.812678 L 89.31172,61.219646 c 1.57155,-0.993044 2.2219,-1.978166 2.60295,-3.077344 1.16391,-3.146312 2.2986,-5.475025 3.47783,-8.163197 0.32429,-0.477279 0.29991,-0.63935 0.0956,-0.649767 z m -20.049881,3.984743 -11.172184,11.33892 c 0.03109,2.223004 -0.112018,5.036838 -0.38908,7.837205 L 75.438209,61.595948 c 0.37556,-3.011001 0.509445,-5.860905 0,-8.281867 z m 3.112645,7.781613 c -4.307466,3.937412 -8.631067,7.84809 -12.50617,12.506173 l -0.333499,7.003446 c 3.582487,-3.553978 7.015032,-7.016181 11.172178,-10.282841 1.340386,-3.075564 1.279561,-6.151214 1.667491,-9.226778 z m 17.737076,0.02528 -3.06762,0.699782 c -4.320553,0.156489 -7.543828,4.65263 -11.427578,7.008738 0.02339,3.044044 -1.129978,6.108153 -2.829452,9.181184 0,0 5.090467,-3.487071 7.740756,-5.126123 4.331664,-2.678868 5.164814,-3.281417 6.871174,-6.398166 0.96564,-1.763794 2.71272,-5.365415 2.71272,-5.365415 z m -33.077978,4.588088 -8.670943,9.060028 c -0.469605,0.328976 -0.807095,0.878154 -0.833742,1.945403 l -0.222331,8.226281 c 2.744839,-3.504905 5.615648,-7.240804 8.948854,-10.894258 z m 17.409143,3.999199 c -5.073483,3.613615 -9.756296,7.699029 -14.233689,12.282718 l -0.939076,6.693863 c 3.489039,-3.071369 6.970379,-6.14575 10.972639,-9.019177 3.916938,-5.345792 4.022346,-7.616466 4.200126,-9.957404 z m 15.139415,0.519981 c -4.70331,2.114901 -9.17472,4.045084 -13.395223,7.005393 -0.270685,3.291963 -1.391386,6.594467 -2.58961,9.897939 C 87.203075,84.004661 93.09031,80.31099 95.75851,70.228242 Z m -30.825486,4.652006 c 0,0 -7.193337,8.22764 -10.727509,12.394999 -0.518528,0.611433 -0.844423,1.199993 -0.938521,1.889826 -0.224843,1.648302 -0.16675,5.502705 -0.16675,5.502705 l 10.94345,-12.394991 c 0.616274,-2.570797 0.69213,-4.961465 0.88933,-7.392542 z m 16.376969,2.995367 c -4.676287,3.086718 -8.972146,6.544269 -13.120366,10.146111 -0.29054,2.584699 -1.031131,5.174992 -1.947625,7.767441 3.701163,-2.927379 7.81412,-5.35274 11.931167,-7.773271 1.611097,-3.199429 2.464287,-6.640873 3.136824,-10.140281 z m 13.470527,5.123364 c -0.15898,-0.0068 -0.34271,0 -0.5536,0.0228 -0.76893,0.08304 -1.58559,-0.01043 -2.35672,0.147017 -0.6373,0.130126 -0.63381,0.03291 -1.83924,0.651715 l -8.70985,4.471095 c 0.08418,2.606308 -1.080307,5.366867 -1.865089,8.080655 3.34798,-1.724019 5.727494,-2.569561 8.548936,-4.108427 1.894013,-1.033023 3.164883,-2.200405 4.670363,-4.388263 l 2.50985,-3.647082 c 0.6015,-0.473606 0.70829,-1.181939 -0.40465,-1.229492 z m -29.599319,0.146733 c -4.021873,4.350473 -8.174054,9.108574 -12.289671,13.75234 l -0.156462,6.408708 c 3.676882,-4.675998 7.373247,-9.323567 11.468707,-13.388259 0.365208,-2.181103 0.718106,-4.386306 0.977426,-6.772789 z m 15.12552,5.747844 c -4.389684,2.340635 -8.710908,4.814473 -12.675705,7.979198 -0.08369,2.345176 -0.796081,4.608246 -1.605235,6.858946 3.88104,-2.29919 7.719063,-4.654313 11.907267,-6.554342 1.347587,-2.768127 2.178603,-5.529966 2.373673,-8.283802 z m -13.243759,0.203453 c -5.218802,5.01639 -9.681513,10.770425 -14.420443,16.254951 l -0.111443,3.69626 c 3.691311,-4.25019 7.398093,-8.48354 11.920597,-11.821648 1.43008,-2.716746 2.116611,-5.424413 2.611289,-8.129563 z m 25.673778,4.365472 c -4.878416,0.0088 -8.631402,1.693424 -11.970353,3.994204 -0.21065,3.285875 -1.492593,5.812685 -2.84501,8.289635 6.291736,-1.86408 12.068113,-5.04535 15.806133,-12.262994 -0.33545,-0.01463 -0.66555,-0.0214 -0.99077,-0.02087 z m -26.116219,4.326853 c -4.947832,3.832616 -9.644873,8.270256 -14.387089,12.598996 l -0.395475,2.99204 c 4.115057,-3.03547 8.19177,-5.70859 12.196847,-8.56256 2.049607,-2.27361 2.247458,-4.6826 2.585717,-7.028476 z m 13.092573,0.309331 -12.446979,7.386405 c -0.682089,2.26148 -1.823576,4.43701 -3.023436,6.6016 l 11.880587,-5.53217 c 1.742847,-2.64409 3.395909,-5.31668 3.589828,-8.455835 z m 11.433976,4.877955 c -5.075409,0.0164 -8.318448,2.1771 -12.074015,3.73796 -1.188716,3.83297 -1.795475,4.81947 -2.515404,6.35952 4.79094,-2.18779 8.821348,-1.80302 11.484546,-5.76312 l 3.602063,-4.32908 c -0.16762,-0.004 -0.33347,-0.006 -0.49719,-0.005 z m -25.090436,3.23104 c -4.913881,3.1531 -10.136888,6.41341 -14.740599,9.45883 l -0.743979,3.38971 c 3.795853,-2.01233 7.483877,-4.0234 11.795537,-6.04214 1.297556,-1.29433 2.970839,-3.99773 3.689041,-6.8064 z m 11.999532,0.91266 -12.429189,5.65697 c -0.948746,2.15459 -2.250733,3.96443 -3.504786,5.82119 l 12.831058,-4.95438 c 1.395462,-2.05923 2.335861,-4.2637 3.102917,-6.52378 z m 9.016111,4.36911 -10.256725,3.35026 c -1.026102,2.04995 -2.182292,3.84765 -3.309689,5.70114 2.241542,-0.5698 5.142316,-1.29499 7.296379,-2.34366 2.479367,-1.20702 4.463153,-2.61369 6.270035,-6.70774 z m -22.579193,1.77337 c -4.919867,2.57578 -9.790272,5.10098 -14.606645,7.57068 l -1.210319,3.82772 11.375054,-5.09363 c 1.698656,-1.96013 3.04762,-4.14713 4.44191,-6.30477 z m 11.070184,2.02461 -12.366659,4.3591 c -0.816517,1.79198 -2.002098,3.58861 -3.117088,5.38431 l 11.859175,-4.07755 c 1.405155,-1.83342 2.742309,-3.7346 3.624572,-5.66586 z m -13.812927,5.0058 c -4.372695,1.89293 -8.748191,3.77343 -13.012525,6.17526 -2.854454,3.21433 -6.078321,6.03604 -9.834845,8.8477 6.328978,-3.14814 12.639724,-6.55191 19.262549,-9.3182 1.471474,-1.56446 2.529006,-3.63372 3.584821,-5.70476 z m 17.506415,0.65921 c -1.90204,-0.005 -3.768758,0.102 -5.589704,0.35518 -1.133398,1.96436 -2.92437,3.69135 -4.629506,5.44935 0,0 3.196447,-0.17738 4.780412,-0.004 2.464712,0.27062 4.359879,-0.59437 5.754507,-2.15578 1.20278,-1.34663 4.181788,-3.44281 4.181788,-3.44281 -1.517424,-0.12563 -3.018128,-0.19807 -4.497497,-0.20233 z m -6.865613,0.56556 c -4.352933,1.34909 -8.451755,3.02829 -12.588426,4.65841 l 7.790228,0.62614 c 1.676628,-1.68628 3.342253,-3.383 4.798198,-5.28455 z" />
    </g>
  </g>
</svg>
